# xmcd
# Copyright (C) 1995-1998 Ti Kan
#
# Track frame offsets:
#       150
#       14610
#       29385
#       47675
#       71035
#       83787
#       103110
#       121537
#       137460
#       150295
#       161857
#       176722
#       194137
#
# Disc length: 2799 seconds
#
# Revision: 2
# Processed by: cddbd v1.4PL0 Copyright (c) Steve Scherf et al.
# Submitted via: CD-Transfer v1.0
#
DISCID=ab0aed0d
DTITLE=Neutones - Fold-Up
DYEAR=2002
DGENRE=
TTITLE0=Stream
TTITLE1=Seagull
TTITLE2=Fold-Up
TTITLE3=Alpha Blue
TTITLE4=Memberzone
TTITLE5=Loosing You
TTITLE6=Nevermind
TTITLE7=Rain Keeps Falling
TTITLE8=Evermore
TTITLE9=Vision Show
TTITLE10=Time Is Up
TTITLE11=Delirious
TTITLE12=Evermore, Too
EXTD=
EXTT0=
EXTT1=
EXTT2=
EXTT3=
EXTT4=
EXTT5=
EXTT6=
EXTT7=
EXTT8=
EXTT9=
EXTT10=
EXTT11=
EXTT12=
PLAYORDER=
